<svg xmlns="http://www.w3.org/2000/svg" width="20" height="20" viewBox="0 0 20 20">
  <g id="_211625_at_icon" data-name="211625_at_icon" transform="translate(-32 -32)">
    <path id="Path_18" data-name="Path 18" d="M50.83,48.746a9.514,9.514,0,0,1-3.8,2.473A13.764,13.764,0,0,1,42.379,52a11.676,11.676,0,0,1-4.254-.741A9.521,9.521,0,0,1,34.853,49.2a9.154,9.154,0,0,1-2.107-3.161A10.551,10.551,0,0,1,32,42.022a9.637,9.637,0,0,1,.817-3.978,9.926,9.926,0,0,1,2.228-3.174,10.41,10.41,0,0,1,3.3-2.112A10.721,10.721,0,0,1,42.379,32a12.085,12.085,0,0,1,3.585.536,9.288,9.288,0,0,1,3.085,1.612A7.9,7.9,0,0,1,51.2,36.835a8.407,8.407,0,0,1,.8,3.79,8.312,8.312,0,0,1-.446,2.848,6.242,6.242,0,0,1-1.2,2.071,4.86,4.86,0,0,1-1.71,1.25,5.061,5.061,0,0,1-2.022.415,2.765,2.765,0,0,1-1.741-.509,1.578,1.578,0,0,1-.652-1.29H44.1a4.361,4.361,0,0,1-1.25,1.223,3.578,3.578,0,0,1-2.067.58A3.5,3.5,0,0,1,37.929,46a4.762,4.762,0,0,1-1-3.147,6.778,6.778,0,0,1,.379-2.232,6.376,6.376,0,0,1,1.085-1.964,5.537,5.537,0,0,1,1.683-1.384,4.536,4.536,0,0,1,2.174-.522,3.312,3.312,0,0,1,1.741.429,2.065,2.065,0,0,1,.924,1.049h.027l.219-1.076h2.42l-1.067,5.085c-.036.25-.085.527-.147.835a4.268,4.268,0,0,0-.094.862,1.515,1.515,0,0,0,.179.768.726.726,0,0,0,.692.308,2.032,2.032,0,0,0,1.754-1.129,5.789,5.789,0,0,0,.692-3.036,7.113,7.113,0,0,0-.545-2.862,5.858,5.858,0,0,0-1.509-2.1,6.466,6.466,0,0,0-2.295-1.277,9.447,9.447,0,0,0-2.906-.429,7.978,7.978,0,0,0-3.138.6,7.153,7.153,0,0,0-2.433,1.665,7.574,7.574,0,0,0-1.562,2.5,8.946,8.946,0,0,0,.022,6.3,6.957,6.957,0,0,0,1.643,2.433,7.163,7.163,0,0,0,2.527,1.545,10.324,10.324,0,0,0,7.022-.165,10.431,10.431,0,0,0,2.92-1.937Zm-8.5-9.781a1.83,1.83,0,0,0-1.143.375,3.268,3.268,0,0,0-.83.955,4.909,4.909,0,0,0-.518,1.277,5.567,5.567,0,0,0-.179,1.344,3.843,3.843,0,0,0,.067.688,1.8,1.8,0,0,0,.272.674,1.535,1.535,0,0,0,1.4.71,2.119,2.119,0,0,0,1.25-.362,2.908,2.908,0,0,0,.844-.915,4.248,4.248,0,0,0,.478-1.2,5.347,5.347,0,0,0,.147-1.183,4.512,4.512,0,0,0-.08-.848,2.261,2.261,0,0,0-.286-.754,1.6,1.6,0,0,0-.558-.549A1.628,1.628,0,0,0,42.326,38.964Z" fill="#fff"/>
  </g>
</svg>
