<svg xmlns="http://www.w3.org/2000/svg" width="20" height="23.333" viewBox="0 0 20 23.333">
  <path id="_211855_locked_icon" data-name="211855_locked_icon" d="M65.167,55.333H82.833A1.161,1.161,0,0,0,84,54.182V43.146A1.154,1.154,0,0,0,82.833,42H81.708V40.391a9.186,9.186,0,0,0-2.219-6.01A7.574,7.574,0,0,0,74.005,32h-.01a7.589,7.589,0,0,0-5.484,2.375,9.186,9.186,0,0,0-2.219,6.01V42H65.167A1.157,1.157,0,0,0,64,43.146V54.182A1.158,1.158,0,0,0,65.167,55.333Zm3.885-14.943a6.522,6.522,0,0,1,1.464-4.182h0v-.016a4.832,4.832,0,0,1,3.479-1.536h.01a4.832,4.832,0,0,1,3.479,1.536v.01l-.005.005a6.493,6.493,0,0,1,1.464,4.182V42H69.052Z" transform="translate(-64 -32)" fill="#fff"/>
</svg>
