<svg id="_3669472_music_library_ic_icon" data-name="3669472_music_library_ic_icon" xmlns="http://www.w3.org/2000/svg" width="30" height="30" viewBox="0 0 30 30">
  <path id="Path_10" data-name="Path 10" d="M0,0H30V30H0Z" fill="none"/>
  <path id="Path_11" data-name="Path 11" d="M23.8,4H10.6A2.2,2.2,0,0,0,8.4,6.2V19.4a2.2,2.2,0,0,0,2.2,2.2H23.8A2.2,2.2,0,0,0,26,19.4V6.2A2.2,2.2,0,0,0,23.8,4ZM21.6,9.5H18.3v6.05a2.772,2.772,0,1,1-1.1-2.189V7.3h4.4ZM6.2,8.4H4V23.8A2.2,2.2,0,0,0,6.2,26H21.6V23.8H6.2Z" fill="#fff"/>
</svg>
