<svg xmlns="http://www.w3.org/2000/svg" width="25" height="25" viewBox="0 0 25 25">
  <path id="_370076_account_avatar_client_male_person_icon" data-name="370076_account_avatar_client_male_person_icon" d="M18.609,5a12.5,12.5,0,1,0,12.5,12.5A12.5,12.5,0,0,0,18.609,5Zm0,1.042a11.451,11.451,0,0,1,8.809,18.775c-1.142-.477-3.839-1.413-5.508-1.906-.142-.045-.165-.052-.165-.644a3.42,3.42,0,0,1,.4-1.4,7.174,7.174,0,0,0,.555-1.9,4.277,4.277,0,0,0,.82-1.979,2.607,2.607,0,0,0-.025-1.661c-.013-.035-.027-.07-.038-.1a10.86,10.86,0,0,1,.185-2.336,4.282,4.282,0,0,0-.9-3.086,4.606,4.606,0,0,0-3.52-1.685H18.169A4.586,4.586,0,0,0,14.68,9.8a4.282,4.282,0,0,0-.9,3.086,10.872,10.872,0,0,1,.186,2.331.857.857,0,0,1-.039.109A2.609,2.609,0,0,0,13.9,16.99a4.254,4.254,0,0,0,.82,1.979,7.1,7.1,0,0,0,.555,1.9,3.379,3.379,0,0,1,.229,1.421c0,.593-.022.6-.156.642-1.726.51-4.474,1.5-5.5,1.951a11.45,11.45,0,0,1,8.754-18.84Zm-8,19.652c1.173-.479,3.512-1.313,5.048-1.767.893-.282.893-1.034.893-1.638a4.5,4.5,0,0,0-.328-1.864,5.89,5.89,0,0,1-.482-1.735.516.516,0,0,0-.176-.347,3.106,3.106,0,0,1-.639-1.556c-.152-.755-.087-.921-.025-1.08a2.021,2.021,0,0,0,.072-.211,10.209,10.209,0,0,0-.166-2.792,3.26,3.26,0,0,1,.695-2.258A3.554,3.554,0,0,1,18.2,9.16h.988a3.578,3.578,0,0,1,2.732,1.285,3.258,3.258,0,0,1,.694,2.258,10.242,10.242,0,0,0-.166,2.791c.021.076.046.143.072.212.062.16.126.325-.024,1.08a3.1,3.1,0,0,1-.64,1.556.525.525,0,0,0-.176.347,5.863,5.863,0,0,1-.481,1.735,4.423,4.423,0,0,0-.5,1.843c0,.6,0,1.357.9,1.641,1.47.434,3.82,1.242,5.061,1.73a11.433,11.433,0,0,1-16.057.056Z" transform="translate(-6.109 -5)" fill="#fff"/>
</svg>
