<svg xmlns="http://www.w3.org/2000/svg" width="20" height="26.667" viewBox="0 0 20 26.667">
  <path id="_3994412_key_lock_open_password_unlock_icon" data-name="3994412_key_lock_open_password_unlock_icon" d="M30.333,10H18.667V6.665a3.321,3.321,0,0,1,6.457-1.108A1.667,1.667,0,1,0,28.265,4.44,6.655,6.655,0,0,0,15.333,6.665V10H13.667A1.666,1.666,0,0,0,12,11.665V25a1.666,1.666,0,0,0,1.667,1.667H30.333A1.666,1.666,0,0,0,32,25V11.665A1.666,1.666,0,0,0,30.333,10ZM28.667,23.332H15.333v-10H28.667Z" transform="translate(-12 0.002)" fill="#fff"/>
</svg>
