<svg id="_7548874_user_interface_maximize_resize_arrow_icon" data-name="7548874_user_interface_maximize_resize_arrow_icon" xmlns="http://www.w3.org/2000/svg" width="25" height="25" viewBox="0 0 25 25">
  <path id="Path_12" data-name="Path 12" d="M29.261,1.673A1.256,1.256,0,0,0,28.018.5H21.363a1.25,1.25,0,0,0,0,2.5H25L18.477,9.524a1.25,1.25,0,1,0,1.768,1.768l6.524-6.524V8.405a1.25,1.25,0,0,0,2.5,0V1.75C29.268,1.724,29.262,1.7,29.261,1.673Z" transform="translate(-4.268 -0.5)" fill="#fff"/>
  <path id="Path_13" data-name="Path 13" d="M20.8,10.49a1.2,1.2,0,0,0-1.2,1.2v10.44a1.661,1.661,0,0,1-1.659,1.659H4.566a1.661,1.661,0,0,1-1.659-1.659V8.764A1.661,1.661,0,0,1,4.566,7.1h10.44a1.2,1.2,0,1,0,0-2.407H4.566A4.07,4.07,0,0,0,.5,8.764V22.134A4.07,4.07,0,0,0,4.566,26.2H17.935A4.07,4.07,0,0,0,22,22.134V11.694A1.2,1.2,0,0,0,20.8,10.49Z" transform="translate(-0.5 -1.2)" fill="#fff"/>
</svg>
