<svg xmlns="http://www.w3.org/2000/svg" width="20" height="15" viewBox="0 0 20 15">
  <path id="_8665305_envelope_email_icon" data-name="8665305_envelope_email_icon" d="M10,75.25a2.986,2.986,0,0,1-1.842-.641L0,68.266v8.859A1.875,1.875,0,0,0,1.875,79h16.25A1.875,1.875,0,0,0,20,77.125V68.266l-8.156,6.348A3.009,3.009,0,0,1,10,75.25ZM.636,67.176l8.289,6.449a1.751,1.751,0,0,0,2.151,0l8.289-6.449a1.765,1.765,0,0,0,.635-1.3A1.875,1.875,0,0,0,18.125,64H1.875A1.875,1.875,0,0,0,0,65.875,1.649,1.649,0,0,0,.636,67.176Z" transform="translate(0 -64)" fill="#fff"/>
</svg>
