<svg xmlns="http://www.w3.org/2000/svg" width="25" height="25" viewBox="0 0 25 25">
  <path id="_9004706_house_home_property_estate_building_icon" data-name="9004706_house_home_property_estate_building_icon" d="M13.112.2a1.042,1.042,0,0,0-1.225,0L.429,8.532a1.042,1.042,0,0,0,1.225,1.685l.429-.312v11.97A3.125,3.125,0,0,0,5.208,25H19.791a3.125,3.125,0,0,0,3.125-3.125V9.905l.429.312A1.042,1.042,0,0,0,24.57,8.532Zm-2.7,22.717V14.583h4.167v8.333Zm10.417-1.042a1.042,1.042,0,0,1-1.042,1.042H16.666V14.583A2.083,2.083,0,0,0,14.583,12.5H10.417a2.083,2.083,0,0,0-2.083,2.083v8.333H5.208a1.042,1.042,0,0,1-1.042-1.042V8.389L12.5,2.329l8.333,6.06Z" transform="translate(0 0)" fill="#2ef3dd"/>
</svg>
