<svg id="_9044907_name_space_icon" data-name="9044907_name_space_icon" xmlns="http://www.w3.org/2000/svg" width="20" height="20" viewBox="0 0 20 20">
  <path id="Path_19" data-name="Path 19" d="M7,12H4a2,2,0,0,1-2-2V6A2,2,0,0,1,4,4H7V6H4v4H7Z" transform="translate(0 0)" fill="#fff"/>
  <rect id="Rectangle_26" data-name="Rectangle 26" width="6" height="2" transform="translate(4.846 6)" fill="#fff"/>
  <rect id="Rectangle_27" data-name="Rectangle 27" width="6" height="2" transform="translate(9.154 6)" fill="#fff"/>
  <path id="Path_20" data-name="Path 20" d="M28,12H25V10h3V6H25V4h3a2,2,0,0,1,2,2v4a2,2,0,0,1-2,2Z" transform="translate(-12 0)" fill="#fff"/>
  <rect id="Rectangle_28" data-name="Rectangle 28" width="6" height="2" transform="translate(9.154 4)" fill="#fff"/>
  <rect id="Rectangle_29" data-name="Rectangle 29" width="6" height="2" transform="translate(4.846 4)" fill="#fff"/>
  <path id="Path_21" data-name="Path 21" d="M16.857,28H3.143C2.512,28,2,27.1,2,26V22c0-1.1.512-2,1.143-2H16.857c.631,0,1.142.9,1.143,2v4C18,27.1,17.488,28,16.857,28ZM3.143,22v4H16.857V22Z" transform="translate(0 -12)" fill="#fff"/>
  <rect id="Rectangle_30" data-name="Rectangle 30" width="16" height="2" transform="translate(2 9)" fill="#fff"/>
  <rect id="_Transparent_Rectangle_" data-name="&lt;Transparent Rectangle&gt;" width="20" height="20" fill="none"/>
</svg>
