<svg xmlns="http://www.w3.org/2000/svg" width="30" height="36.844" viewBox="0 0 30 36.844">
  <g id="apple-seeklogo" transform="translate(0)">
    <path id="Path_9" data-name="Path 9" d="M25.055,19.574A8.144,8.144,0,0,0,30,27.029a20.165,20.165,0,0,1-2.55,5.24c-1.536,2.244-3.129,4.481-5.64,4.527-2.467.045-3.26-1.463-6.081-1.463s-3.7,1.417-6.036,1.508c-2.423.092-4.269-2.427-5.817-4.663C.712,27.6-1.706,19.252,1.541,13.615A9.019,9.019,0,0,1,9.164,9c2.38-.045,4.626,1.6,6.081,1.6s4.183-1.98,7.053-1.689a8.607,8.607,0,0,1,6.739,3.655,8.332,8.332,0,0,0-3.982,7.01M20.419,5.883A8.115,8.115,0,0,0,22.335,0a8.259,8.259,0,0,0-5.427,2.792,7.711,7.711,0,0,0-1.954,5.7,6.833,6.833,0,0,0,5.466-2.609" transform="translate(0)" fill="#fff"/>
  </g>
</svg>
