<svg xmlns="http://www.w3.org/2000/svg" width="25" height="24.999" viewBox="0 0 25 24.999">
  <g id="Icons" transform="translate(-8.306 -8.307)">
    <g id="Group_14" data-name="Group 14" transform="translate(8.306 8.307)">
      <path id="Path_14" data-name="Path 14" d="M20.806,8.307a12.5,12.5,0,1,0,12.5,12.5A12.514,12.514,0,0,0,20.806,8.307Zm5.677,7.2L22.4,22.306a.275.275,0,0,1-.1.095l-6.795,4.082a.279.279,0,0,1-.341-.042.278.278,0,0,1-.042-.341l4.084-6.792a.275.275,0,0,1,.1-.095L26.1,15.129a.279.279,0,0,1,.382.383Zm-5.961-4.819a.279.279,0,0,1-.265.292,10.038,10.038,0,0,0-1.25.142.263.263,0,0,1-.049,0,.279.279,0,0,1-.048-.553,10.572,10.572,0,0,1,1.32-.15A.284.284,0,0,1,20.522,10.692Zm-6.863,2.489a11.385,11.385,0,0,1,4.173-2.355.279.279,0,0,1,.152.537,10.807,10.807,0,0,0-3.96,2.242.279.279,0,0,1-.364-.423Z" transform="translate(-8.306 -8.307)" fill="#fff"/>
    </g>
  </g>
</svg>
