<svg xmlns="http://www.w3.org/2000/svg" width="16.069" height="15.412" viewBox="0 0 16.069 15.412">
  <path id="icons8-comment" d="M9.6,4.063c-4.134,0-7.535,2.911-7.535,6.549A6.283,6.283,0,0,0,5,15.775a1.94,1.94,0,0,1-.092.524,5.34,5.34,0,0,1-.811,1.694l-.339.472.585.01a4.5,4.5,0,0,0,3.387-1.54,8.576,8.576,0,0,0,1.868.226c4.133,0,7.535-2.911,7.535-6.549S13.73,4.063,9.6,4.063Zm0,.616c3.848,0,6.919,2.678,6.919,5.933S13.445,16.545,9.6,16.545a8.051,8.051,0,0,1-1.9-.226l-.185-.041-.123.154a4.61,4.61,0,0,1-2.464,1.324A6.23,6.23,0,0,0,5.5,16.463a3.6,3.6,0,0,0,.133-.821v-.164l-.144-.092a5.694,5.694,0,0,1-2.813-4.773C2.678,7.356,5.748,4.678,9.6,4.678Z" transform="translate(-1.563 -3.563)" fill="#fff" stroke="#fff" stroke-width="1"/>
</svg>
